<svg width="27" height="24" viewBox="0 0 27 24" fill="none" xmlns="http://www.w3.org/2000/svg">
<path d="M26.9602 11.3373L26.9607 11.3358V11.3344C27.0158 11.0195 27.0123 10.7017 26.9543 10.3946V10.3922V10.3907L26.9528 10.3823L26.9513 10.3769L26.9415 10.3317C26.9375 10.312 26.9331 10.2928 26.9287 10.2731L26.9277 10.2687L26.9262 10.2613L26.9257 10.2593L26.9252 10.2584L26.9238 10.2554C26.8613 10.0015 26.7619 9.75751 26.6276 9.53168L26.6266 9.52873C26.3786 9.1125 26.0131 8.75974 25.5486 8.52752L9.07212 0.277212C8.6062 0.0440048 8.10288 -0.036683 7.61925 0.0149767H7.61728C7.34619 0.0440046 7.081 0.114852 6.83205 0.224568L6.82959 0.22506L6.75136 0.26196L6.74792 0.263435L6.74251 0.265895L6.74202 0.266388L6.74054 0.267371C6.45617 0.406115 6.19541 0.596518 5.97352 0.833168L5.97302 0.833661L5.97352 0.834153C5.80525 1.01422 5.65962 1.21988 5.544 1.45112L0.389344 11.7447C-0.260093 13.0411 0.266836 14.6244 1.56325 15.2733L18.0393 23.5236C19.3357 24.173 20.9189 23.6461 21.5679 22.3497L26.722 12.0561C26.8391 11.8234 26.9169 11.5813 26.9602 11.3373ZM24.7909 11.8062L20.2946 20.7856L17.81 13.3166L24.7909 11.8062ZM12.0305 13.8342C12.121 14.0285 12.2716 14.1776 12.4521 14.2681C12.6342 14.3592 12.8477 14.3907 13.0583 14.3444L16.0019 13.7078L18.6921 21.7937L2.86409 13.8682L10.8143 11.2237L12.0305 13.8342ZM24.4018 10.0099L13.3879 12.3922L8.58799 2.09121L24.4018 10.0099ZM10.0325 9.54546L2.25106 12.1344L6.90634 2.83708L10.0325 9.54546Z" fill="#878A99"/>
</svg>
