<svg width="26" height="28" viewBox="0 0 26 28" fill="none" xmlns="http://www.w3.org/2000/svg">
<path d="M8.12293 11.7254C8.67203 12.9609 9.53001 14.3336 10.6282 15.6378C11.5548 16.736 12.6874 17.7999 13.9572 18.6235C14.1974 18.7608 14.4033 18.8981 14.6093 18.8981C14.6779 18.8981 14.7808 18.8981 14.8495 18.8295L17.1146 16.9076C17.5264 16.5644 18.0069 16.4271 18.4873 16.4271C18.9678 16.4271 19.4483 16.633 19.8258 16.9762C20.5465 17.6626 21.3015 18.349 22.0565 19.0011C22.8115 19.6531 23.6009 20.2709 24.3559 20.8886C24.5961 21.0945 24.8021 21.3004 24.9393 21.575C25.0766 21.8496 25.1452 22.1241 25.1796 22.4673C25.1796 22.7762 25.1109 23.085 25.008 23.3596C24.8707 23.6341 24.6991 23.8744 24.4589 24.0803L21.1299 26.8602C20.6494 27.272 20.1346 27.5122 19.5512 27.6152C18.9678 27.7181 18.3844 27.6495 17.8009 27.4436C15.6045 26.6199 13.4767 25.4874 11.4862 24.0803C9.56433 22.7418 7.81405 21.1288 6.23537 19.2413C4.65669 17.3881 3.35256 15.3632 2.32298 13.2354C1.25909 11.0733 0.504063 8.77394 0.0579136 6.47455C-0.045044 5.85681 -0.0107247 5.27338 0.160871 4.72427C0.332467 4.17517 0.675659 3.66038 1.15613 3.28287L4.48509 0.468692C4.72532 0.262777 4.99988 0.1255 5.30875 0.0568619H5.34307C5.61762 -0.0117765 5.9265 -0.0117765 6.20105 0.0225427C6.50992 0.0911811 6.78448 0.194139 7.02471 0.365735C7.26495 0.537331 7.47086 0.777565 7.60814 1.05212C8.08861 1.9101 8.56907 2.76808 9.08386 3.66038C9.59865 4.51836 10.1478 5.34202 10.6969 6.2C11.0057 6.64615 11.1087 7.12662 11.0401 7.60708C10.9714 8.08755 10.7312 8.5337 10.3194 8.87689L8.01997 10.7988C7.95133 10.8674 7.91701 10.936 7.91701 11.039C7.91701 11.2449 7.98565 11.4852 8.12293 11.7254ZM9.46137 16.633C8.2602 15.2259 7.33358 13.7159 6.71584 12.3431C6.50992 11.897 6.37265 11.3822 6.40697 10.9017C6.44128 10.4213 6.6472 9.97511 7.05903 9.63192L9.35842 7.71004C9.46137 7.60709 9.53001 7.50413 9.53001 7.40117C9.56433 7.26389 9.53001 7.16094 9.46137 7.05798C8.87795 6.2 8.32884 5.3077 7.81405 4.44972C7.29926 3.59174 6.78448 2.69944 6.30401 1.80714C6.26969 1.7385 6.20105 1.66986 6.16673 1.63554C6.09809 1.60123 6.02945 1.56691 5.96082 1.56691C5.89218 1.53259 5.82354 1.53259 5.7549 1.56691H5.72058C5.65194 1.60123 5.5833 1.60123 5.51467 1.66986L2.1857 4.48404C1.94547 4.68995 1.73955 4.96451 1.6366 5.23906C1.53364 5.54793 1.49932 5.85681 1.56796 6.16568C2.01411 8.32779 2.73481 10.4899 3.73007 12.549C4.69101 14.5739 5.9265 16.4614 7.43654 18.246C8.94659 20.0306 10.6282 21.5407 12.4128 22.8448C14.2661 24.1489 16.2909 25.2128 18.35 26.0022C18.6589 26.1051 18.9678 26.1738 19.2767 26.1051C19.5855 26.0708 19.8601 25.9335 20.1346 25.6933L23.4293 22.8791C23.4979 22.8448 23.5322 22.7762 23.5666 22.7075C23.6009 22.6389 23.6009 22.5703 23.6009 22.5016C23.6009 22.3987 23.6009 22.33 23.5666 22.2957C23.5322 22.2271 23.4979 22.1584 23.4293 22.1241C22.6399 21.5064 21.8506 20.8543 21.0613 20.2022C20.2719 19.5502 19.5169 18.8638 18.7619 18.1431C18.6589 18.0401 18.556 18.0058 18.4187 18.0058C18.3157 18.0058 18.1784 18.0401 18.0755 18.1431L15.8104 20.065C15.3986 20.4081 14.9181 20.5454 14.472 20.4768C13.9915 20.4425 13.511 20.2365 13.0992 19.962C11.6921 19.0011 10.4566 17.8342 9.46137 16.633Z" fill="#878A99"/>
</svg>
